HIERARCHY
ROOT Hips
{
	OFFSET 0.000000 8.830580 0.000000
	CHANNELS 6 Xposition Yposition Zposition Zrotation Yrotation Xrotation 
	JOINT Spine
	{
		OFFSET 0.000000 0.010000 0.000000
		CHANNELS 3 Zrotation Yrotation Xrotation
		JOINT Spine1
		{
			OFFSET 0.000000 2.459130 0.000000
			CHANNELS 3 Zrotation Yrotation Xrotation
			JOINT Neck
			{
				OFFSET 0.000000 2.484630 0.000000
				CHANNELS 3 Zrotation Yrotation Xrotation
				JOINT Head_virtual
				{
					OFFSET 0.000000 0.000000 0.000000
					CHANNELS 3 Zrotation Yrotation Xrotation
					JOINT Head
					{
						OFFSET 0.000000 0.927525 0.000000
						CHANNELS 3 Zrotation Yrotation Xrotation
						End Site
						{
							OFFSET 0.000000 0.000000 0.000000
						}
					}
				}
				JOINT LeftUpArm_virtual
				{
					OFFSET 0.000000 0.000000 0.000000
					CHANNELS 3 Zrotation Yrotation Xrotation
					JOINT LeftUpArm
					{
						OFFSET 1.248820 0.000000 0.000000
						CHANNELS 3 Zrotation Yrotation Xrotation
						JOINT LeftForeArm
						{
							OFFSET 2.597580 0.000000 0.000000
							CHANNELS 3 Zrotation Yrotation Xrotation
							JOINT LeftHand
							{
								OFFSET 2.455420 0.000000 0.000000
								CHANNELS 3 Zrotation Yrotation Xrotation
								End Site
								{
									OFFSET 0.000000 0.000000 0.000000
								}
							}
						}
					}
				}
				JOINT RightUpArm_virtual
				{
					OFFSET -0.000000 -0.000000 -0.000000
					CHANNELS 3 Zrotation Yrotation Xrotation
					JOINT RightUpArm
					{
						OFFSET -1.248820 -0.000000 -0.000000
						CHANNELS 3 Zrotation Yrotation Xrotation
						JOINT RightForeArm
						{
							OFFSET -2.597580 -0.000000 -0.000000
							CHANNELS 3 Zrotation Yrotation Xrotation
							JOINT RightHand
							{
								OFFSET -2.455420 -0.000000 -0.000000
								CHANNELS 3 Zrotation Yrotation Xrotation
								End Site
								{
									OFFSET 0.000000 0.000000 0.000000
								}
							}
						}
					}
				}
			}
		}
	}
	JOINT LeftUpLeg
	{
		OFFSET 1.271939 0.000000 0.000000
		CHANNELS 3 Zrotation Yrotation Xrotation
		JOINT LeftLowLeg
		{
			OFFSET 0.000000 -4.342910 0.000000
			CHANNELS 3 Zrotation Yrotation Xrotation
			JOINT LeftFoot
			{
				OFFSET 0.000000 -4.487670 0.000000
				CHANNELS 3 Zrotation Yrotation Xrotation
				JOINT LeftToeBase
				{
					OFFSET 0.000000 0.000000 1.515070
					CHANNELS 3 Zrotation Yrotation Xrotation
					End Site
					{
						OFFSET 0.000000 0.000000 0.000000
					}
				}
			}
		}
	}
	JOINT RightUpLeg
	{
		OFFSET -1.271939 0.000000 0.000000
		CHANNELS 3 Zrotation Yrotation Xrotation
		JOINT RightLowLeg
		{
			OFFSET 0.000000 -4.342910 0.000000
			CHANNELS 3 Zrotation Yrotation Xrotation
			JOINT RightFoot
			{
				OFFSET 0.000000 -4.487670 0.000000
				CHANNELS 3 Zrotation Yrotation Xrotation
				JOINT RightToeBase
				{
					OFFSET 0.000000 0.000000 1.515070
					CHANNELS 3 Zrotation Yrotation Xrotation
					End Site
					{
						OFFSET 0.000000 0.000000 0.000000
					}
				}
			}
		}
	}
}
MOTION
Frames: 11
Frame Time: 0.041667
-16.877152 8.949788 38.604308 -177.350004 -4.314786 -163.314491 6.221192 -1.301496 -26.334816 -1.755017 -0.090501 5.244537 0.000000 0.000000 0.000000 1.387684 7.784128 -4.728656 -16.436935 -5.160676 -76.020526 -31.264200 -3.555040 15.479900 -40.975101 -23.894899 2.663620 0.000000 -27.531401 0.000000 12.792000 6.810060 20.672701 29.990000 -4.711450 5.429200 46.603500 5.839340 9.709991 0.000000 15.225600 0.000000 -1.612180 -8.412220 5.164190 6.662113 -25.768926 -12.436749 0.000000 0.000000 3.755650 -2.314383 20.823329 -4.789185 0.000000 0.000000 -10.682190 5.194443 19.816835 -8.855527 0.000000 0.000000 3.292520 4.921443 -30.067002 -1.137590 0.000000 0.000000 -17.789370 
-16.876252 8.949809 38.607787 -177.310484 -4.032858 -163.312809 6.187814 -1.208134 -26.422329 -1.871179 0.035524 5.420921 0.000000 0.000000 0.000000 2.157876 7.610588 -4.676480 -16.047160 -4.922739 -76.035381 -31.292101 -3.462420 15.522800 -40.909401 -23.416401 2.432280 0.000000 -26.633101 0.000000 12.836200 7.082780 20.256901 29.978300 -4.698090 5.485440 46.776600 5.739440 9.993988 0.000000 15.165800 0.000000 -1.890210 -7.867570 5.537620 6.640639 -25.671284 -12.411334 0.000000 0.000000 3.781120 -2.317847 20.994507 -4.834424 0.000000 0.000000 -10.726680 5.144812 20.066176 -8.921705 0.000000 0.000000 3.333330 4.931137 -30.032912 -1.113402 0.000000 0.000000 -17.801600 
-16.874603 8.949495 38.608542 -177.277190 -3.803093 -163.341811 6.163654 -1.130797 -26.541573 -2.018346 0.143292 5.657008 0.000000 0.000000 0.000000 3.004237 7.387167 -4.622519 -15.688897 -4.673081 -76.033811 -31.254499 -3.382640 15.482600 -40.896999 -22.765301 2.389270 0.000000 -25.552500 0.000000 12.606300 7.218120 19.720301 30.017799 -4.708280 5.500630 46.860401 5.569290 10.707001 0.000000 15.311600 0.000000 -2.259850 -7.797170 6.084060 6.624994 -25.663794 -12.330748 0.000000 0.000000 3.768050 -2.359440 21.192321 -4.895714 0.000000 0.000000 -10.714230 5.147463 20.162194 -8.904087 0.000000 0.000000 3.323490 4.875574 -29.936011 -1.053578 0.000000 0.000000 -17.806840 
-16.872648 8.949658 38.614587 -177.209480 -3.388836 -163.323835 6.166510 -0.950356 -26.563341 -2.186814 0.290903 5.779985 0.000000 0.000000 0.000000 3.946652 7.153186 -4.514051 -15.458691 -4.374700 -76.080290 -31.256599 -3.258920 15.420600 -40.824200 -22.023600 2.370250 0.000000 -24.321199 0.000000 12.321400 7.499070 19.313499 30.143000 -4.702260 5.490490 46.802799 5.323440 11.639008 0.000000 15.570100 0.000000 -2.569070 -7.711100 5.583600 6.591837 -25.391020 -12.285963 0.000000 0.000000 3.761740 -2.400312 21.299509 -4.964790 0.000000 0.000000 -10.685420 5.074153 20.549240 -9.045382 0.000000 0.000000 3.423580 4.927746 -29.880371 -1.033729 0.000000 0.000000 -17.819200 
-16.870792 8.949474 38.617442 -177.171730 -3.097646 -163.321628 6.162632 -0.870468 -26.649919 -2.324335 0.374106 5.959918 0.000000 0.000000 0.000000 4.782158 6.931023 -4.428190 -15.143733 -4.160625 -76.169473 -31.249399 -3.139660 15.406700 -40.755699 -21.215401 2.523700 0.000000 -22.928301 0.000000 11.992300 7.759680 19.080900 30.201500 -4.667660 5.473210 46.794601 5.127290 12.533997 0.000000 15.671100 0.000000 -2.799810 -7.712210 5.089060 6.564799 -25.262200 -12.223721 0.000000 0.000000 3.734270 -2.452207 21.438633 -5.018212 0.000000 0.000000 -10.679400 5.034057 20.771742 -9.090200 0.000000 0.000000 3.430200 4.911151 -29.823552 -0.984265 0.000000 0.000000 -17.835920 
-16.868629 8.949429 38.622737 -177.127909 -2.729812 -163.270363 6.167815 -0.771421 -26.714713 -2.447929 0.459187 6.088756 0.000000 0.000000 0.000000 5.599465 6.728778 -4.347194 -14.936373 -3.889552 -76.185253 -31.233700 -2.974910 15.330200 -40.712898 -20.299801 2.812540 0.000000 -21.490900 0.000000 11.511800 8.308910 18.793600 30.255600 -4.616140 5.450190 46.789501 4.938240 13.260986 0.000000 15.772300 0.000000 -2.992230 -7.483840 5.095110 6.529207 -24.991675 -12.211556 0.000000 0.000000 3.713790 -2.476787 21.529258 -5.058668 0.000000 0.000000 -10.704300 4.945233 21.110605 -9.235550 0.000000 0.000000 3.484840 4.929279 -29.787063 -0.955791 0.000000 0.000000 -17.831890 
-16.867184 8.949269 38.625383 -177.086104 -2.653421 -163.188924 6.238269 -0.788101 -26.870046 -2.633290 0.384869 6.242721 0.000000 0.000000 0.000000 6.339495 6.561626 -4.264029 -14.694970 -3.624469 -76.159024 -31.143999 -2.782900 15.186000 -40.720200 -19.272200 3.677880 0.000000 -19.886400 0.000000 11.039000 8.423110 18.464199 30.325600 -4.588630 5.421990 46.774799 4.743630 13.904999 0.000000 15.782200 0.000000 -2.999860 -7.247920 4.705670 6.616385 -25.013364 -12.315584 0.000000 0.000000 3.731450 -2.492977 21.642647 -5.107312 0.000000 0.000000 -10.692330 4.960086 21.049744 -9.297757 0.000000 0.000000 3.400690 4.820637 -29.688522 -0.844573 0.000000 0.000000 -17.822220 
-16.863720 8.949125 38.627474 -177.059012 -2.329492 -163.193772 6.233224 -0.712865 -26.916051 -2.751172 0.460185 6.379127 0.000000 0.000000 0.000000 7.065091 6.367029 -4.169159 -14.428030 -3.387662 -76.088009 -31.063900 -2.630000 15.124800 -40.715302 -18.180500 4.608570 0.000000 -18.315701 0.000000 10.362500 8.711220 18.637600 30.373100 -4.632070 5.275160 46.809502 4.500630 14.242004 0.000000 15.824500 0.000000 -2.962910 -7.137660 5.067340 6.535036 -24.705309 -12.199468 0.000000 0.000000 3.666740 -2.522832 21.641350 -5.133314 0.000000 0.000000 -10.692740 4.921671 21.292262 -9.317620 0.000000 0.000000 3.386940 4.750532 -29.653552 -0.773969 0.000000 0.000000 -17.816150 
-16.862105 8.949111 38.633530 -177.029902 -2.044546 -163.207407 6.262877 -0.644092 -26.868234 -2.873663 0.476679 6.463985 0.000000 0.000000 0.000000 7.743469 6.165388 -4.154843 -14.251095 -3.138789 -75.971069 -30.982901 -2.463820 15.085500 -40.771198 -17.111300 5.338600 0.000000 -16.694000 0.000000 9.434260 9.185280 19.446100 30.463301 -4.632170 5.328360 46.743198 4.391540 14.299011 0.000000 15.887200 0.000000 -2.882400 -7.275380 4.850940 6.473203 -24.459778 -12.142341 0.000000 0.000000 3.651850 -2.537489 21.677195 -5.154298 0.000000 0.000000 -10.706770 4.866632 21.523484 -9.379718 0.000000 0.000000 3.419040 4.779564 -29.592960 -0.755794 0.000000 0.000000 -17.808020 
-16.859107 8.949249 38.636514 -176.994118 -1.857489 -163.221752 6.285437 -0.657779 -26.902615 -2.923176 0.453418 6.615218 0.000000 0.000000 0.000000 8.358831 5.912452 -4.137016 -14.127166 -2.954358 -75.792322 -30.848700 -2.296640 15.053500 -40.967701 -16.026800 5.935710 0.000000 -14.998600 0.000000 8.566370 9.682670 20.972099 30.468500 -4.613390 5.309630 46.789001 4.236120 14.221985 0.000000 15.862600 0.000000 -2.899730 -7.357310 4.455150 6.453528 -24.274413 -12.077709 0.000000 0.000000 3.618200 -2.541629 21.673631 -5.166336 0.000000 0.000000 -10.699890 4.879191 21.606792 -9.377755 0.000000 0.000000 3.383900 4.674894 -29.538934 -0.646885 0.000000 0.000000 -17.809230 
-16.856702 8.949916 38.640450 -176.967290 -1.744150 -163.264136 6.303260 -0.691700 -26.893017 -2.941822 0.412596 6.732845 0.000000 0.000000 0.000000 8.943723 5.645902 -4.050892 -14.034295 -2.832439 -75.663565 -30.695200 -2.145660 15.009800 -41.251499 -14.918000 6.503320 0.000000 -13.335800 0.000000 7.593640 10.243100 22.285500 30.411800 -4.636580 5.173940 46.931499 3.969640 13.920013 0.000000 15.725000 0.000000 -2.969690 -7.231090 4.225710 6.440123 -24.161281 -12.020947 0.000000 0.000000 3.605720 -2.548211 21.675452 -5.162310 0.000000 0.000000 -10.698010 4.911692 21.618454 -9.346232 0.000000 0.000000 3.348640 4.576549 -29.482035 -0.533827 0.000000 0.000000 -17.822240 
